Coordinates
version=1
nRows=17
nColumns=36
inDegrees=yes

Units are S.I. units (second, meters, Newtons, ...)
If the header above contains a line with 'inDegrees', this indicates whether rotational values are in degrees (yes) or radians (no).

endheader
time	pelvis_tilt	pelvis_list	pelvis_rotation	pelvis_tx	pelvis_ty	pelvis_tz	hip_flexion_r	hip_adduction_r	hip_rotation_r	knee_angle_r	knee_angle_r_beta	ankle_angle_r	subtalar_angle_r	mtp_angle_r	hip_flexion_l	hip_adduction_l	hip_rotation_l	knee_angle_l	knee_angle_l_beta	ankle_angle_l	subtalar_angle_l	mtp_angle_l	lumbar_extension	lumbar_bending	lumbar_rotation	arm_flex_r	arm_add_r	arm_rot_r	elbow_flex_r	pro_sup_r	arm_flex_l	arm_add_l	arm_rot_l	elbow_flex_l	pro_sup_l
      0.38000000	     -4.65335507	     -2.41911062	      1.86634024	      0.26804756	      0.90601173	     -0.25014358	      8.65287271	      8.64773951	      9.05714128	     14.92955903	      0.26056996	      6.93774991	    -18.46524445	     -5.92966619	     36.59804956	     -2.25765573	     -1.14233631	     57.83897790	      1.00948060	      5.10592882	    -11.03550766	     -5.92966619	     -6.28077098	      8.93208888	      6.62187612	      8.39301738	    -19.11713126	      6.73464121	     44.05170954	    104.42320131	     -0.09326523	    -17.15881401	     -6.70598867	     40.94117713	    102.88484537
      0.39000000	     -4.81346298	     -2.46908828	      1.20302207	      0.27814660	      0.90548608	     -0.24970173	      7.68852659	      8.72155993	      9.56911491	     14.16280819	      0.24718763	      7.15657129	    -18.14239227	     -5.94617827	     37.47417300	     -2.38017462	     -1.09093339	     55.16680366	      0.96284236	      5.37638582	    -10.89874867	     -5.94617827	     -6.19825795	      8.98215455	      7.04116950	      9.08917460	    -19.12061208	      7.16898111	     44.43172257	    104.43026451	      0.09545678	    -17.09088995	     -6.91722691	     41.05379315	    102.83329167
      0.40000000	     -4.75795122	     -2.54783213	      0.55769893	      0.28842908	      0.90516936	     -0.24922918	      6.40800402	      8.82171285	     10.21462617	     13.30686503	      0.23224861	      7.56988575	    -17.78775775	     -5.97424974	     37.93721574	     -2.59188358	     -1.10534892	     52.23005228	      0.91158638	      5.62129816	    -10.69736396	     -5.97424974	     -6.37652267	      9.04467214	      7.39957537	      9.83705219	    -19.18776161	      7.88629980	     44.77094179	    104.43124673	      0.29494891	    -16.96837561	     -7.27781342	     41.10818776	    102.74782066
      0.41000000	     -4.84881219	     -2.64212907	     -0.03619582	      0.29875719	      0.90446373	     -0.24882556	      5.32766236	      8.89110840	     10.62671282	     12.50870839	      0.21831815	      7.83741739	    -17.35615568	     -5.99958531	     38.45610411	     -2.74065668	     -0.88064860	     49.13295401	      0.85753182	      5.80910647	    -10.33750978	     -5.99958531	     -6.34141982	      9.12335085	      7.64795054	     10.50895979	    -19.19117697	      8.50623387	     45.09437780	    104.43888498	      0.40876634	    -16.85692592	     -7.59438665	     41.12863432	    102.68034810
      0.42000000	     -4.90880648	     -2.77696986	     -0.60849116	      0.30917378	      0.90369079	     -0.24847027	      4.21501870	      8.97556298	     10.95665450	     11.71668397	      0.20449471	      8.17882336	    -16.82238669	     -6.02661075	     38.79674071	     -2.91861232	     -0.57482097	     45.83312787	      0.79993899	      5.96328922	     -9.80228209	     -6.02661075	     -6.35215372	      9.22011978	      7.83438785	     11.17777016	    -19.19026711	      9.15420828	     45.40680602	    104.45288967	      0.50308704	    -16.73234552	     -7.94652759	     41.09659340	    102.60883496
      0.43000000	     -5.01950920	     -2.91852858	     -1.15140065	      0.31963026	      0.90268898	     -0.24813244	      3.18374448	      9.04355499	     11.19611661	     10.98050300	      0.19164593	      8.51639784	    -16.21621790	     -6.04940331	     39.07211892	     -3.07589950	     -0.11235500	     42.38970284	      0.73983988	      6.06497879	     -9.07611501	     -6.04940331	     -6.30126375	      9.32010240	      7.97384251	     11.76950281	    -19.14243133	      9.72017996	     45.73853572	    104.47858864	      0.56848680	    -16.60632266	     -8.26575606	     41.01880528	    102.54505379
      0.44000000	     -5.07056094	     -3.10319564	     -1.69048568	      0.33018035	      0.90164700	     -0.24776747	      2.10645764	      9.14802900	     11.33256461	     10.28872602	      0.17957214	      9.00234869	    -15.46459236	     -6.07547237	     39.17233908	     -3.31242079	      0.37860534	     38.85680868	      0.67817925	      6.17168565	     -8.15450885	     -6.07547237	     -6.32711420	      9.43947727	      8.05456924	     12.34939029	    -19.08920860	     10.33511958	     46.03375247	    104.50620833	      0.59666783	    -16.44036549	     -8.63022480	     40.88892076	    102.47133444
      0.45000000	     -5.21050844	     -3.34006178	     -2.24500292	      0.34076219	      0.90028765	     -0.24739611	      1.28006323	      9.25393343	     10.91263695	      9.90567195	      0.17288659	     10.21240220	    -13.45338894	     -6.18808484	     39.29291005	     -3.62428568	      0.99837920	     35.33157843	      0.61665237	      6.49099109	     -6.80546285	     -6.18808484	     -6.24056096	      9.60971973	      7.83724360	     13.23405434	    -18.99519983	     11.63884519	     45.98921585	    104.40621760	      0.27819694	    -16.23284648	     -9.52348504	     41.03135943	    102.33711851
      0.46000000	     -5.37641882	     -3.56465578	     -2.80294765	      0.35133397	      0.89884499	     -0.24701227	      0.39756974	      9.40084189	     11.08232894	      9.37706496	      0.16366066	     10.54442747	    -12.93679629	     -6.21254973	     39.32101213	     -3.91684926	      1.78025159	     31.74047005	      0.55397571	      6.50844543	     -5.77975347	     -6.21254973	     -6.14800302	      9.75859714	      7.95742059	     13.61496922	    -18.88051946	     11.90864760	     46.39021999	    104.41288143	      0.30441008	    -16.07003014	     -9.68699417	     40.81306559	    102.29505480
      0.47000000	     -5.57621025	     -3.80465515	     -3.38990197	      0.36191272	      0.89726878	     -0.24656910	     -0.38673031	      9.55459780	     11.18527640	      8.99146948	      0.15693075	     11.03930674	    -12.14642853	     -6.24274486	     39.30616361	     -4.28960815	      2.60614270	     28.20340753	      0.49224232	      6.70937677	     -4.53683872	     -6.24274486	     -6.04142744	      9.90745983	      8.03978716	     14.00423225	    -18.76098967	     12.28072382	     46.73075689	    104.41641516	      0.28698569	    -15.90789938	     -9.86457499	     40.57994447	    102.24415607
      0.48000000	     -5.96313494	     -4.06627933	     -4.01981285	      0.37241492	      0.89538813	     -0.24605134	     -0.87568843	      9.75910255	     11.37213760	      8.78036944	      0.15324636	     11.37502058	    -11.60419147	     -6.25728090	     39.42727643	     -4.72691339	      3.62115987	     24.76890464	      0.43229894	      6.90708350	     -3.39210099	     -6.25728090	     -5.73842679	     10.08038403	      8.14257208	     14.28047551	    -18.58365490	     12.55271900	     47.05662533	    104.43536544	      0.19661251	    -15.73346158	     -9.93852623	     40.42240534	    102.21355752
      0.49000000	     -6.36727576	     -4.34900128	     -4.70136571	      0.38299440	      0.89340481	     -0.24545223	     -1.32175989	      9.99132744	     11.58353436	      8.66421497	      0.15121908	     11.66595377	    -11.12498025	     -6.26672454	     39.54212191	     -5.29249074	      4.47432798	     21.54272926	      0.37599156	      7.20610749	     -2.39888085	     -6.26672454	     -5.42012707	     10.26976555	      8.23850333	     14.54625516	    -18.43134945	     12.78032502	     47.36701450	    104.45742866	      0.04514159	    -15.59154236	     -9.98741355	     40.23607756	    102.18343166
      0.50000000	     -6.71653268	     -4.56050371	     -5.39651026	      0.39360884	      0.89152163	     -0.24482006	     -1.79905487	     10.12864832	     11.79972938	      8.59925263	      0.15008527	     12.05092717	    -10.59781544	     -6.27650461	     39.50304531	     -5.83664973	      5.31733594	     18.46080331	      0.32220180	      7.58472590	     -1.39134850	     -6.27650461	     -5.17392656	     10.33855824	      8.33721150	     14.75970175	    -18.25672493	     13.08016574	     47.63742136	    104.48177465	     -0.04034610	    -15.42671227	    -10.03265619	     40.02478823	    102.14698675
      0.51000000	     -6.86656246	     -4.68770799	     -6.08145675	      0.40447165	      0.88988572	     -0.24414232	     -2.36942531	     10.06730282	     11.13540029	      8.75102354	      0.15273417	     13.66682045	     -8.02073433	     -6.35637488	     39.20878065	     -6.37339720	      5.69263457	     15.66742798	      0.27344820	      8.24350928	      0.02824468	     -6.35637488	     -5.14408751	     10.25338451	      8.32972871	     15.18543163	    -18.16445030	     14.11541848	     47.60409808	    104.39197307	     -0.11507916	    -15.30576558	    -10.15698398	     39.73787109	    101.99345440
      0.52000000	     -7.27790299	     -4.86210355	     -6.84978630	      0.41523040	      0.88786840	     -0.24343986	     -2.67869844	     10.17295097	     11.46623802	      8.90969114	      0.15550345	     13.82047540	     -7.73227386	     -6.36609467	     39.22020219	     -6.98440100	      6.09159189	     13.28296300	      0.23183144	      8.65802921	      0.47424715	     -6.36609467	     -4.85132061	     10.25446632	      8.41456143	     15.28283582	    -17.94156249	     14.28628144	     47.87934843	    104.40294384	     -0.27232537	    -15.15671795	    -10.16468096	     39.56541276	    101.96122686
      0.53000000	     -7.54198341	     -4.98090182	     -7.62822496	      0.42618261	      0.88609116	     -0.24270936	     -3.14590270	     10.18151555	     11.78915452	      9.07963957	      0.15846961	     14.09340753	     -7.36922105	     -6.37691928	     39.01525877	     -7.54834086	      6.21705673	     11.25371565	      0.19641439	      9.04069426	      0.70266101	     -6.37691928	     -4.70569451	     10.13940822	      8.55721883	     15.32822915	    -17.77559976	     14.57398748	     48.10800606	    104.42122930	     -0.33462346	    -14.99664779	    -10.16480561	     39.31797076	    101.91598434
      0.54000000	     -7.76135287	     -5.08462816	     -8.38843159	      0.43735304	      0.88434912	     -0.24211122	     -3.63848278	     10.14308367	     12.06719234	      9.30394937	      0.16238455	     14.32890412	     -6.99848345	     -6.38616739	     38.79256920	     -8.05862971	      6.00520960	      9.74800433	      0.17013477	      9.40695431	      0.58390177	     -6.38616739	     -4.60093292	     10.00395480	      8.63602837	     15.30652937	    -17.62217815	     14.87360308	     48.32150238	    104.44371061	     -0.42466973	    -14.82414947	    -10.13350764	     39.03619356	    101.87161142
